<?xml version="1.0" encoding="UTF-8" standalone="no"?>
<!DOCTYPE svg PUBLIC "-//W3C//DTD SVG 1.1//EN" "http://www.w3.org/Graphics/SVG/1.1/DTD/svg11.dtd">
<svg width="100%" height="100%" viewBox="0 0 107 101" version="1.1" xmlns="http://www.w3.org/2000/svg" xmlns:xlink="http://www.w3.org/1999/xlink" xml:space="preserve" xmlns:serif="http://www.serif.com/" style="fill-rule:evenodd;clip-rule:evenodd;stroke-linejoin:round;stroke-miterlimit:2;">
    <g id="surface2" transform="matrix(1,0,0,1,-186.602,-64.3008)">
        <path d="M233.051,97.699C233.75,97.398 234.234,96.934 234.5,96.301C234.766,95.633 234.766,94.949 234.5,94.25C234.199,93.582 233.715,93.117 233.051,92.852C232.418,92.582 231.75,92.582 231.051,92.852C230.383,93.148 229.918,93.617 229.648,94.25C229.383,94.883 229.383,95.551 229.648,96.25C229.949,96.949 230.418,97.434 231.051,97.699C231.684,97.965 232.352,97.965 233.051,97.699M219.648,122.852C219.785,123.148 219.984,123.352 220.25,123.449C220.516,123.582 220.801,123.602 221.102,123.5C221.398,123.367 221.617,123.148 221.75,122.852C221.852,122.582 221.852,122.301 221.75,122C221.617,121.699 221.418,121.5 221.148,121.398C220.852,121.266 220.551,121.266 220.25,121.398C219.984,121.535 219.785,121.734 219.648,122C219.551,122.266 219.551,122.551 219.648,122.852M246.602,98.398C247.465,98.734 248.316,98.734 249.148,98.398C249.984,98.035 250.602,97.418 251,96.551C251.332,95.648 251.316,94.785 250.949,93.949C250.617,93.117 250.016,92.516 249.148,92.148C248.25,91.816 247.383,91.816 246.551,92.148C245.715,92.484 245.102,93.102 244.699,94C244.367,94.898 244.383,95.75 244.75,96.551C245.082,97.383 245.699,98 246.602,98.398M218.949,105.949C218.75,106.449 218.75,106.918 218.949,107.352C219.148,107.816 219.5,108.168 220,108.398C220.5,108.566 220.965,108.566 221.398,108.398C221.867,108.199 222.215,107.852 222.449,107.352C222.617,106.852 222.602,106.367 222.398,105.898C222.234,105.465 221.898,105.133 221.398,104.898C220.898,104.699 220.418,104.699 219.949,104.898C219.484,105.102 219.148,105.449 218.949,105.949M239.949,96.699C240.816,96.668 241.535,96.383 242.102,95.852C242.668,95.285 242.949,94.566 242.949,93.699C242.949,92.867 242.668,92.168 242.102,91.602C241.535,91.035 240.816,90.734 239.949,90.699C239.117,90.734 238.418,91.035 237.852,91.602C237.285,92.168 236.984,92.867 236.949,93.699C236.984,94.566 237.285,95.285 237.852,95.852C238.418,96.418 239.117,96.699 239.949,96.699M217.648,114.551C217.648,114.949 217.801,115.301 218.102,115.602C218.367,115.867 218.715,116.016 219.148,116.051C219.582,116.016 219.934,115.867 220.199,115.602C220.465,115.301 220.617,114.949 220.648,114.551C220.617,114.117 220.465,113.75 220.199,113.449C219.898,113.184 219.551,113.051 219.148,113.051C218.715,113.051 218.367,113.184 218.102,113.449C217.801,113.75 217.648,114.117 217.648,114.551M252.051,102.449C252.816,103.184 253.699,103.551 254.699,103.551C255.699,103.551 256.582,103.184 257.352,102.449C258.082,101.684 258.449,100.801 258.449,99.801C258.449,98.801 258.082,97.918 257.352,97.148C256.582,96.418 255.699,96.051 254.699,96.051C253.699,96.051 252.816,96.418 252.051,97.148C251.316,97.918 250.949,98.801 250.949,99.801C250.949,100.801 251.316,101.684 252.051,102.449M223.648,98.199C223.215,98.668 223,99.199 223,99.801C223,100.398 223.215,100.934 223.648,101.398C224.117,101.832 224.648,102.051 225.25,102.051C225.852,102.051 226.383,101.832 226.852,101.398C227.285,100.934 227.5,100.398 227.5,99.801C227.5,99.199 227.285,98.668 226.852,98.199C226.383,97.766 225.852,97.551 225.25,97.551C224.648,97.551 224.117,97.766 223.648,98.199M214.352,103.852C214.785,102.785 214.801,101.75 214.398,100.75C213.965,99.785 213.234,99.066 212.199,98.602C211.133,98.168 210.117,98.168 209.148,98.602C208.148,99 207.418,99.715 206.949,100.75C206.551,101.816 206.551,102.832 206.949,103.801C207.352,104.801 208.066,105.535 209.102,106C210.168,106.398 211.199,106.398 212.199,106C213.168,105.602 213.883,104.883 214.352,103.852M227.102,145.5C227.535,145.668 227.965,145.668 228.398,145.5C228.832,145.332 229.133,145.016 229.301,144.551C229.5,144.117 229.516,143.684 229.352,143.25C229.148,142.816 228.832,142.5 228.398,142.301C227.934,142.133 227.5,142.133 227.102,142.301C226.668,142.465 226.352,142.785 226.148,143.25C225.984,143.684 225.984,144.117 226.148,144.551C226.316,144.984 226.633,145.301 227.102,145.5M229.699,90C231.035,89.398 231.965,88.465 232.5,87.199C233,85.898 232.984,84.582 232.449,83.25C231.852,81.918 230.918,80.984 229.648,80.449C228.383,79.918 227.082,79.918 225.75,80.449C224.418,81.051 223.484,81.984 222.949,83.25C222.418,84.551 222.418,85.867 222.949,87.199C223.551,88.535 224.484,89.465 225.75,90C227.016,90.535 228.332,90.535 229.699,90M208.051,127.949C208.383,128.684 208.898,129.199 209.602,129.5C210.301,129.801 211.035,129.801 211.801,129.5C212.535,129.168 213.051,128.648 213.352,127.949C213.617,127.25 213.602,126.516 213.301,125.75C212.965,125.016 212.449,124.5 211.75,124.199C211.051,123.898 210.316,123.898 209.551,124.199C208.816,124.535 208.301,125.051 208,125.75C207.734,126.484 207.75,127.215 208.051,127.949M220.75,95.301C221.648,94.367 222.102,93.285 222.102,92.051C222.102,90.852 221.648,89.785 220.75,88.852C219.816,87.949 218.734,87.5 217.5,87.5C216.301,87.5 215.234,87.949 214.301,88.852C213.398,89.785 212.949,90.852 212.949,92.051C212.949,93.285 213.398,94.367 214.301,95.301C215.234,96.199 216.316,96.648 217.551,96.648C218.75,96.648 219.816,96.199 220.75,95.301M215.898,138.648C216.367,139.117 216.898,139.352 217.5,139.352C218.133,139.352 218.684,139.117 219.148,138.648C219.582,138.184 219.801,137.648 219.801,137.051C219.801,136.449 219.582,135.918 219.148,135.449C218.684,134.984 218.133,134.75 217.5,134.75C216.898,134.75 216.367,134.984 215.898,135.449C215.465,135.918 215.25,136.449 215.25,137.051C215.25,137.648 215.465,138.184 215.898,138.648M240,88.5C241.633,88.465 242.984,87.898 244.051,86.801C245.148,85.734 245.715,84.383 245.75,82.75C245.715,81.117 245.148,79.766 244.051,78.699C242.984,77.633 241.633,77.066 240,77C238.367,77.066 237.016,77.633 235.949,78.699C234.883,79.766 234.332,81.117 234.301,82.75C234.332,84.383 234.883,85.734 235.949,86.801C237.016,87.867 238.367,88.434 240,88.5M204.75,114.551C204.785,115.516 205.117,116.332 205.75,117C206.418,117.633 207.234,117.965 208.199,118C209.168,117.965 209.984,117.633 210.648,117C211.285,116.332 211.617,115.516 211.648,114.551C211.617,113.582 211.285,112.785 210.648,112.148C209.984,111.484 209.168,111.133 208.199,111.102C207.234,111.133 206.418,111.465 205.75,112.102C205.117,112.766 204.785,113.582 204.75,114.551M202.301,130.051C201.633,128.516 200.566,127.449 199.102,126.852C197.668,126.215 196.168,126.199 194.602,126.801C193.066,127.465 192,128.535 191.398,130C190.801,131.434 190.801,132.934 191.398,134.5C192.066,136.035 193.117,137.102 194.551,137.699C196.016,138.301 197.535,138.316 199.102,137.75C200.633,137.082 201.699,136.016 202.301,134.551C202.898,133.117 202.898,131.617 202.301,130.051M258.801,160.102C259.465,159.832 259.918,159.383 260.148,158.75C260.418,158.148 260.418,157.516 260.148,156.852C259.883,156.184 259.434,155.715 258.801,155.449C258.199,155.184 257.551,155.184 256.852,155.449C256.215,155.75 255.766,156.199 255.5,156.801C255.234,157.434 255.234,158.082 255.5,158.75C255.801,159.418 256.25,159.867 256.852,160.102C257.484,160.367 258.133,160.367 258.801,160.102M203.852,99.699C204.383,98.398 204.551,97.082 204.352,95.75C204.148,94.449 203.648,93.266 202.852,92.199C202.051,91.168 201,90.367 199.699,89.801C198.398,89.266 197.082,89.102 195.75,89.301C194.449,89.5 193.266,90 192.199,90.801C191.168,91.602 190.367,92.648 189.801,93.949C189.266,95.25 189.102,96.566 189.301,97.898C189.5,99.199 190,100.383 190.801,101.449C191.602,102.484 192.648,103.285 193.949,103.852C195.25,104.352 196.566,104.516 197.898,104.352C199.199,104.148 200.383,103.648 201.449,102.852C202.484,102.051 203.285,101 203.852,99.699M220.801,161.699C221.898,162.133 222.965,162.133 224,161.699C225.035,161.266 225.801,160.5 226.301,159.398C226.699,158.266 226.684,157.184 226.25,156.148C225.816,155.117 225.051,154.367 223.949,153.898C222.852,153.465 221.785,153.465 220.75,153.898C219.715,154.332 218.965,155.102 218.5,156.199C218.066,157.301 218.066,158.367 218.5,159.398C218.934,160.434 219.699,161.199 220.801,161.699M200.102,114.551C200.035,112.617 199.367,111.016 198.102,109.75C196.832,108.484 195.25,107.832 193.352,107.801C191.449,107.832 189.867,108.484 188.602,109.75C187.301,111.016 186.633,112.617 186.602,114.551C186.633,116.449 187.301,118.035 188.602,119.301C189.867,120.566 191.449,121.215 193.352,121.25C195.25,121.215 196.832,120.566 198.102,119.301C199.367,118.035 200.035,116.449 200.102,114.551M240.102,164.648C241.035,164.617 241.816,164.285 242.449,163.648C243.082,163.016 243.418,162.234 243.449,161.301C243.418,160.332 243.082,159.535 242.449,158.898C241.816,158.266 241.035,157.934 240.102,157.898C239.133,157.934 238.332,158.266 237.699,158.898C237.066,159.535 236.734,160.332 236.699,161.301C236.734,162.234 237.066,163.016 237.699,163.648C238.332,164.285 239.133,164.617 240.102,164.648M213,87.449C214.102,86.316 214.832,85.035 215.199,83.602C215.566,82.199 215.566,80.785 215.199,79.352C214.832,77.918 214.102,76.633 213,75.5C211.867,74.398 210.582,73.668 209.148,73.301C207.75,72.934 206.332,72.934 204.898,73.301C203.465,73.668 202.199,74.398 201.102,75.5C200,76.633 199.266,77.918 198.898,79.352C198.535,80.75 198.535,82.168 198.898,83.602C199.266,85.035 200,86.316 201.102,87.449C202.199,88.551 203.465,89.285 204.898,89.648C206.332,89.984 207.75,89.984 209.148,89.648C210.582,89.285 211.867,88.551 213,87.449M203.449,144C204.484,143.035 205.684,142.551 207.051,142.551C208.383,142.551 209.566,143.035 210.602,144C211.602,145.035 212.102,146.234 212.102,147.602C212.102,148.934 211.602,150.117 210.602,151.148C209.566,152.148 208.383,152.648 207.051,152.648C205.684,152.648 204.484,152.148 203.449,151.148C202.484,150.117 202,148.934 202,147.602C202,146.234 202.484,145.035 203.449,144" style="fill:rgb(0,168,202);"/>
        <path d="M246.898,131.25C246.234,131.551 245.766,132.016 245.5,132.648C245.199,133.316 245.184,134 245.449,134.699C245.75,135.367 246.234,135.832 246.898,136.102C247.535,136.367 248.199,136.367 248.898,136.102C249.566,135.801 250.035,135.332 250.301,134.699C250.602,134.066 250.617,133.398 250.352,132.699C250.051,132 249.566,131.516 248.898,131.25C248.266,130.984 247.602,130.984 246.898,131.25M260.301,106.102C260.168,105.801 259.965,105.602 259.699,105.5C259.434,105.367 259.148,105.352 258.852,105.449C258.551,105.582 258.352,105.785 258.25,106.051C258.117,106.352 258.102,106.648 258.199,106.949C258.332,107.25 258.551,107.449 258.852,107.551C259.117,107.648 259.398,107.648 259.699,107.551C260,107.418 260.199,107.215 260.301,106.949C260.434,106.684 260.434,106.398 260.301,106.102M233.398,130.551C232.5,130.215 231.633,130.215 230.801,130.551C229.965,130.918 229.367,131.535 229,132.398C228.668,133.301 228.668,134.168 229,135C229.332,135.832 229.949,136.434 230.852,136.801C231.75,137.133 232.602,137.133 233.398,136.801C234.234,136.465 234.852,135.852 235.25,134.949C235.582,134.051 235.566,133.199 235.199,132.398C234.867,131.566 234.266,130.949 233.398,130.551M261,123C261.199,122.5 261.199,122.035 261,121.602C260.801,121.133 260.465,120.785 260,120.551C259.5,120.383 259.016,120.383 258.551,120.551C258.082,120.75 257.75,121.102 257.551,121.602C257.352,122.102 257.352,122.582 257.551,123.051C257.75,123.484 258.082,123.816 258.551,124.051C259.051,124.25 259.535,124.25 260,124.051C260.465,123.852 260.801,123.5 261,123M240,132.25C239.133,132.25 238.418,132.535 237.852,133.102C237.316,133.668 237.035,134.383 237,135.25C237.035,136.082 237.316,136.785 237.852,137.352C238.418,137.918 239.133,138.215 240,138.25C240.867,138.215 241.566,137.918 242.102,137.352C242.668,136.785 242.965,136.082 243,135.25C242.965,134.383 242.668,133.668 242.102,133.102C241.566,132.535 240.867,132.25 240,132.25M262.301,114.398C262.301,113.965 262.168,113.617 261.898,113.352C261.602,113.082 261.234,112.934 260.801,112.898C260.398,112.934 260.051,113.082 259.75,113.352C259.484,113.648 259.332,114 259.301,114.398C259.332,114.832 259.484,115.199 259.75,115.5C260.051,115.766 260.398,115.898 260.801,115.898C261.234,115.898 261.602,115.75 261.898,115.449C262.168,115.184 262.301,114.832 262.301,114.398M227.949,126.5C227.184,125.766 226.301,125.398 225.301,125.398C224.301,125.398 223.398,125.766 222.602,126.5C221.867,127.266 221.5,128.148 221.5,129.148C221.5,130.148 221.867,131.035 222.602,131.801C223.367,132.535 224.25,132.898 225.25,132.898C226.25,132.898 227.148,132.535 227.949,131.801C228.684,131.035 229.051,130.148 229.051,129.148C229.051,128.148 228.684,127.266 227.949,126.5M256.301,130.75C256.734,130.285 256.949,129.75 256.949,129.148C256.949,128.551 256.734,128.016 256.301,127.551C255.832,127.117 255.301,126.898 254.699,126.898C254.133,126.898 253.617,127.117 253.148,127.551C252.715,128.016 252.484,128.551 252.449,129.148C252.449,129.75 252.684,130.285 253.148,130.75C253.617,131.184 254.133,131.398 254.699,131.398C255.301,131.398 255.832,131.184 256.301,130.75M265.602,125.102C265.168,126.168 265.168,127.199 265.602,128.199C266,129.168 266.715,129.883 267.75,130.352C268.816,130.785 269.832,130.785 270.801,130.352C271.801,129.949 272.535,129.234 273,128.199C273.398,127.133 273.398,126.117 273,125.148C272.602,124.148 271.883,123.418 270.852,122.949C269.785,122.551 268.75,122.551 267.75,122.949C266.785,123.352 266.066,124.066 265.602,125.102M252.898,83.449C252.434,83.285 251.984,83.285 251.551,83.449C251.148,83.617 250.852,83.934 250.648,84.398C250.449,84.832 250.449,85.266 250.648,85.699C250.816,86.133 251.117,86.449 251.551,86.648C252.016,86.816 252.449,86.816 252.852,86.648C253.285,86.484 253.602,86.168 253.801,85.699C253.965,85.266 253.965,84.832 253.801,84.398C253.633,83.965 253.332,83.648 252.898,83.449M250.25,138.949C248.918,139.551 247.984,140.484 247.449,141.75C246.949,143.051 246.965,144.367 247.5,145.699C248.102,147.035 249.035,147.965 250.301,148.5C251.566,149.035 252.883,149.035 254.25,148.5C255.582,147.898 256.5,146.965 257,145.699C257.535,144.434 257.535,143.117 257,141.75C256.398,140.418 255.465,139.484 254.199,138.949C252.934,138.418 251.617,138.418 250.25,138.949M271.898,101C271.566,100.266 271.051,99.75 270.352,99.449C269.648,99.148 268.918,99.148 268.148,99.449C267.418,99.785 266.918,100.301 266.648,101C266.352,101.699 266.352,102.434 266.648,103.199C266.984,103.934 267.5,104.449 268.199,104.75C268.898,105.051 269.633,105.051 270.398,104.75C271.133,104.418 271.648,103.898 271.949,103.199C272.215,102.5 272.199,101.766 271.898,101M259.199,133.648C258.301,134.582 257.852,135.668 257.852,136.898C257.852,138.102 258.301,139.184 259.199,140.148C260.133,141.016 261.215,141.449 262.449,141.449C263.648,141.449 264.734,141.016 265.699,140.148C266.602,139.184 267.035,138.102 267,136.898C267,135.668 266.566,134.582 265.699,133.648C264.734,132.75 263.648,132.301 262.449,132.301C261.215,132.301 260.133,132.75 259.199,133.648M264.051,90.301C263.582,89.832 263.051,89.602 262.449,89.602C261.816,89.602 261.266,89.832 260.801,90.301C260.367,90.766 260.148,91.301 260.148,91.898C260.148,92.5 260.367,93.035 260.801,93.5C261.266,93.965 261.816,94.199 262.449,94.199C263.051,94.199 263.582,93.965 264.051,93.5C264.516,93.035 264.75,92.5 264.75,91.898C264.75,91.301 264.516,90.766 264.051,90.301M239.949,140.449C238.316,140.484 236.965,141.051 235.898,142.148C234.832,143.215 234.266,144.566 234.199,146.199C234.234,147.832 234.801,149.184 235.898,150.25C236.965,151.316 238.316,151.883 239.949,151.949C241.582,151.883 242.934,151.316 244,150.25C245.066,149.184 245.633,147.832 245.699,146.199C245.633,144.566 245.066,143.215 244,142.148C242.934,141.082 241.582,140.516 239.949,140.449M275.199,114.398C275.168,113.434 274.832,112.617 274.199,111.949C273.535,111.316 272.715,110.984 271.75,110.949C270.785,110.984 269.965,111.316 269.301,111.949C268.668,112.617 268.332,113.434 268.301,114.398C268.332,115.367 268.668,116.168 269.301,116.801C269.965,117.465 270.785,117.816 271.75,117.852C272.715,117.816 273.535,117.484 274.199,116.852C274.832,116.184 275.168,115.367 275.199,114.398M277.648,98.898C278.316,100.434 279.383,101.5 280.852,102.102C282.285,102.734 283.785,102.75 285.352,102.148C286.883,101.484 287.949,100.418 288.551,98.949C289.148,97.516 289.168,96.016 288.602,94.449C287.898,92.918 286.832,91.852 285.398,91.25C283.965,90.648 282.465,90.633 280.898,91.199C279.367,91.898 278.301,92.965 277.699,94.398C277.066,95.867 277.051,97.367 277.648,98.898M221.148,68.852C220.516,69.117 220.066,69.566 219.801,70.199C219.535,70.801 219.535,71.449 219.801,72.148C220.102,72.785 220.551,73.234 221.148,73.5C221.785,73.766 222.434,73.766 223.102,73.5C223.734,73.199 224.184,72.75 224.449,72.148C224.715,71.516 224.715,70.867 224.449,70.199C224.184,69.535 223.734,69.082 223.102,68.852C222.465,68.582 221.816,68.582 221.148,68.852M276.102,129.25C275.602,130.551 275.434,131.867 275.602,133.199C275.801,134.5 276.301,135.684 277.102,136.75C277.898,137.816 278.949,138.617 280.25,139.148C281.551,139.684 282.867,139.852 284.199,139.648C285.5,139.449 286.684,138.949 287.75,138.148C288.816,137.352 289.617,136.301 290.148,135C290.684,133.699 290.852,132.383 290.648,131.051C290.449,129.75 289.949,128.566 289.148,127.5C288.352,126.465 287.301,125.668 286,125.102C284.699,124.602 283.383,124.434 282.051,124.602C280.75,124.801 279.582,125.301 278.551,126.102C277.484,126.898 276.668,127.949 276.102,129.25M259.199,67.25C258.066,66.816 256.984,66.816 255.949,67.25C254.918,67.684 254.168,68.449 253.699,69.551C253.266,70.684 253.266,71.766 253.699,72.801C254.133,73.832 254.898,74.582 256,75.051C257.102,75.484 258.168,75.484 259.199,75.051C260.234,74.617 261,73.852 261.5,72.75C261.898,71.648 261.883,70.582 261.449,69.551C261.016,68.516 260.266,67.75 259.199,67.25M279.898,114.398C279.934,116.332 280.582,117.934 281.852,119.199C283.117,120.465 284.699,121.117 286.602,121.148C288.535,121.117 290.133,120.465 291.398,119.199C292.668,117.934 293.316,116.332 293.352,114.398C293.316,112.5 292.668,110.918 291.398,109.648C290.133,108.383 288.535,107.734 286.602,107.699C284.699,107.734 283.117,108.383 281.852,109.648C280.582,110.918 279.934,112.5 279.898,114.398M239.852,64.301C238.918,64.332 238.133,64.668 237.5,65.301C236.867,65.934 236.535,66.715 236.5,67.648C236.535,68.617 236.867,69.418 237.5,70.051C238.133,70.684 238.918,71.016 239.852,71.051C240.816,71.016 241.617,70.684 242.25,70.051C242.883,69.418 243.215,68.617 243.25,67.648C243.215,66.715 242.883,65.934 242.25,65.301C241.617,64.668 240.816,64.332 239.852,64.301M266.949,141.5C265.852,142.633 265.117,143.918 264.75,145.352C264.418,146.785 264.434,148.199 264.801,149.602C265.168,151.035 265.883,152.316 266.949,153.449C268.082,154.551 269.367,155.285 270.801,155.648C272.199,156.016 273.617,156.016 275.051,155.648C276.484,155.285 277.766,154.551 278.898,153.449C280,152.316 280.734,151.035 281.102,149.602C281.465,148.199 281.465,146.785 281.102,145.352C280.734,143.918 280,142.633 278.898,141.5C277.766,140.398 276.484,139.668 275.051,139.301C273.648,138.965 272.234,138.984 270.801,139.352C269.367,139.715 268.082,140.434 266.949,141.5M276.5,84.949C275.465,85.918 274.285,86.398 272.949,86.398C271.582,86.398 270.383,85.918 269.352,84.949C268.352,83.918 267.852,82.715 267.852,81.352C267.852,80.016 268.352,78.832 269.352,77.801C270.383,76.801 271.582,76.301 272.949,76.301C274.285,76.301 275.465,76.801 276.5,77.801C277.5,78.832 278,80.016 278,81.352C278,82.715 277.5,83.918 276.5,84.949" style="fill:rgb(0,47,100);"/>
    </g>
</svg>
